<svg xmlns="http://www.w3.org/2000/svg" viewBox="0 0 934 178" width="934" height="178" font-family="Times New Roman, Times, serif">
<rect width="934" height="178" fill="#ffffff"/>
<text x="119.0" y="15" font-size="13" text-anchor="middle">(a) Iter 0 (G0)</text>
<text x="119.0" y="32" font-size="11.5" text-anchor="middle"><tspan font-weight="bold">Gold</tspan> &#8595;<tspan dx="14" font-weight="bold">Pred</tspan> &#8594;</text>
<line x1="39.5" y1="40" x2="198.5" y2="40" stroke="#000" stroke-width="1.1"/>
<text x="77.0" y="53" font-size="11.5" text-anchor="middle">C</text>
<text x="104.0" y="53" font-size="11.5" text-anchor="middle">D</text>
<text x="131.0" y="53" font-size="11.5" text-anchor="middle">M</text>
<text x="158.0" y="53" font-size="11.5" text-anchor="middle">S</text>
<text x="185.0" y="53" font-size="11.5" text-anchor="middle">O</text>
<line x1="39.5" y1="58" x2="198.5" y2="58" stroke="#000" stroke-width="0.7"/>
<line x1="63.5" y1="40" x2="63.5" y2="168" stroke="#000" stroke-width="0.7"/>
<text x="51.5" y="73.0" font-size="11.5" text-anchor="middle">C</text>
<text x="77.0" y="73.0" font-size="11.5" text-anchor="middle">0</text>
<text x="104.0" y="73.0" font-size="11.5" text-anchor="middle">0</text>
<text x="131.0" y="73.0" font-size="11.5" text-anchor="middle">0</text>
<text x="158.0" y="73.0" font-size="11.5" text-anchor="middle">0</text>
<rect x="171.5" y="58" width="27" height="22" fill="#fdeded"/>
<text x="185.0" y="73.0" font-size="11.5" text-anchor="middle">1</text>
<text x="51.5" y="95.0" font-size="11.5" text-anchor="middle">D</text>
<text x="77.0" y="95.0" font-size="11.5" text-anchor="middle">0</text>
<text x="104.0" y="95.0" font-size="11.5" text-anchor="middle">0</text>
<text x="131.0" y="95.0" font-size="11.5" text-anchor="middle">0</text>
<rect x="144.5" y="80" width="27" height="22" fill="#fdeded"/>
<text x="158.0" y="95.0" font-size="11.5" text-anchor="middle">1</text>
<rect x="171.5" y="80" width="27" height="22" fill="#fbd8d8"/>
<text x="185.0" y="95.0" font-size="11.5" text-anchor="middle">2</text>
<text x="51.5" y="117.0" font-size="11.5" text-anchor="middle">M</text>
<text x="77.0" y="117.0" font-size="11.5" text-anchor="middle">0</text>
<text x="104.0" y="117.0" font-size="11.5" text-anchor="middle">0</text>
<text x="131.0" y="117.0" font-size="11.5" text-anchor="middle">0</text>
<text x="158.0" y="117.0" font-size="11.5" text-anchor="middle">0</text>
<text x="185.0" y="117.0" font-size="11.5" text-anchor="middle">0</text>
<text x="51.5" y="139.0" font-size="11.5" text-anchor="middle">S</text>
<text x="77.0" y="139.0" font-size="11.5" text-anchor="middle">0</text>
<rect x="90.5" y="124" width="27" height="22" fill="#ed7373"/>
<text x="104.0" y="139.0" font-size="11.5" text-anchor="middle">6</text>
<rect x="117.5" y="124" width="27" height="22" fill="#fbd8d8"/>
<text x="131.0" y="139.0" font-size="11.5" text-anchor="middle">2</text>
<rect x="144.5" y="124" width="27" height="22" fill="#fbd8d8"/>
<text x="158.0" y="139.0" font-size="11.5" text-anchor="middle">2</text>
<rect x="171.5" y="124" width="27" height="22" fill="#f8c0c0"/>
<text x="185.0" y="139.0" font-size="11.5" text-anchor="middle">3</text>
<text x="51.5" y="161.0" font-size="11.5" text-anchor="middle">O</text>
<text x="77.0" y="161.0" font-size="11.5" text-anchor="middle">0</text>
<text x="104.0" y="161.0" font-size="11.5" text-anchor="middle">0</text>
<text x="131.0" y="161.0" font-size="11.5" text-anchor="middle">0</text>
<rect x="144.5" y="146" width="27" height="22" fill="#fdeded"/>
<text x="158.0" y="161.0" font-size="11.5" text-anchor="middle">1</text>
<text x="185.0" y="161.0" font-size="11.5" text-anchor="middle">0</text>
<line x1="39.5" y1="168" x2="198.5" y2="168" stroke="#000" stroke-width="1.1"/>
<text x="351.0" y="15" font-size="13" text-anchor="middle">(b) Iter 1 (G1)</text>
<text x="351.0" y="32" font-size="11.5" text-anchor="middle"><tspan font-weight="bold">Gold</tspan> &#8595;<tspan dx="14" font-weight="bold">Pred</tspan> &#8594;</text>
<line x1="271.5" y1="40" x2="430.5" y2="40" stroke="#000" stroke-width="1.1"/>
<text x="309.0" y="53" font-size="11.5" text-anchor="middle">C</text>
<text x="336.0" y="53" font-size="11.5" text-anchor="middle">D</text>
<text x="363.0" y="53" font-size="11.5" text-anchor="middle">M</text>
<text x="390.0" y="53" font-size="11.5" text-anchor="middle">S</text>
<text x="417.0" y="53" font-size="11.5" text-anchor="middle">O</text>
<line x1="271.5" y1="58" x2="430.5" y2="58" stroke="#000" stroke-width="0.7"/>
<line x1="295.5" y1="40" x2="295.5" y2="168" stroke="#000" stroke-width="0.7"/>
<text x="283.5" y="73.0" font-size="11.5" text-anchor="middle">C</text>
<text x="309.0" y="73.0" font-size="11.5" text-anchor="middle">0</text>
<text x="336.0" y="73.0" font-size="11.5" text-anchor="middle">0</text>
<text x="363.0" y="73.0" font-size="11.5" text-anchor="middle">0</text>
<text x="390.0" y="73.0" font-size="11.5" text-anchor="middle">0</text>
<rect x="403.5" y="58" width="27" height="22" fill="#fdeded"/>
<text x="417.0" y="73.0" font-size="11.5" text-anchor="middle">1</text>
<text x="283.5" y="95.0" font-size="11.5" text-anchor="middle">D</text>
<text x="309.0" y="95.0" font-size="11.5" text-anchor="middle">0</text>
<text x="336.0" y="95.0" font-size="11.5" text-anchor="middle">0</text>
<text x="363.0" y="95.0" font-size="11.5" text-anchor="middle">0</text>
<rect x="376.5" y="80" width="27" height="22" fill="#fdeded"/>
<text x="390.0" y="95.0" font-size="11.5" text-anchor="middle">1</text>
<rect x="403.5" y="80" width="27" height="22" fill="#f8c0c0"/>
<text x="417.0" y="95.0" font-size="11.5" text-anchor="middle">3</text>
<text x="283.5" y="117.0" font-size="11.5" text-anchor="middle">M</text>
<text x="309.0" y="117.0" font-size="11.5" text-anchor="middle">0</text>
<text x="336.0" y="117.0" font-size="11.5" text-anchor="middle">0</text>
<text x="363.0" y="117.0" font-size="11.5" text-anchor="middle">0</text>
<text x="390.0" y="117.0" font-size="11.5" text-anchor="middle">0</text>
<text x="417.0" y="117.0" font-size="11.5" text-anchor="middle">0</text>
<text x="283.5" y="139.0" font-size="11.5" text-anchor="middle">S</text>
<text x="309.0" y="139.0" font-size="11.5" text-anchor="middle">0</text>
<rect x="322.5" y="124" width="27" height="22" fill="#fbd8d8"/>
<text x="336.0" y="139.0" font-size="11.5" text-anchor="middle">2</text>
<rect x="349.5" y="124" width="27" height="22" fill="#fbd8d8"/>
<text x="363.0" y="139.0" font-size="11.5" text-anchor="middle">2</text>
<rect x="376.5" y="124" width="27" height="22" fill="#f8c0c0"/>
<text x="390.0" y="139.0" font-size="11.5" text-anchor="middle">3</text>
<rect x="403.5" y="124" width="27" height="22" fill="#f8c0c0"/>
<text x="417.0" y="139.0" font-size="11.5" text-anchor="middle">3</text>
<text x="283.5" y="161.0" font-size="11.5" text-anchor="middle">O</text>
<text x="309.0" y="161.0" font-size="11.5" text-anchor="middle">0</text>
<text x="336.0" y="161.0" font-size="11.5" text-anchor="middle">0</text>
<text x="363.0" y="161.0" font-size="11.5" text-anchor="middle">0</text>
<text x="390.0" y="161.0" font-size="11.5" text-anchor="middle">0</text>
<text x="417.0" y="161.0" font-size="11.5" text-anchor="middle">0</text>
<line x1="271.5" y1="168" x2="430.5" y2="168" stroke="#000" stroke-width="1.1"/>
<text x="583.0" y="15" font-size="13" text-anchor="middle">(c) Iter 2 (G2)</text>
<text x="583.0" y="32" font-size="11.5" text-anchor="middle"><tspan font-weight="bold">Gold</tspan> &#8595;<tspan dx="14" font-weight="bold">Pred</tspan> &#8594;</text>
<line x1="503.5" y1="40" x2="662.5" y2="40" stroke="#000" stroke-width="1.1"/>
<text x="541.0" y="53" font-size="11.5" text-anchor="middle">C</text>
<text x="568.0" y="53" font-size="11.5" text-anchor="middle">D</text>
<text x="595.0" y="53" font-size="11.5" text-anchor="middle">M</text>
<text x="622.0" y="53" font-size="11.5" text-anchor="middle">S</text>
<text x="649.0" y="53" font-size="11.5" text-anchor="middle">O</text>
<line x1="503.5" y1="58" x2="662.5" y2="58" stroke="#000" stroke-width="0.7"/>
<line x1="527.5" y1="40" x2="527.5" y2="168" stroke="#000" stroke-width="0.7"/>
<text x="515.5" y="73.0" font-size="11.5" text-anchor="middle">C</text>
<text x="541.0" y="73.0" font-size="11.5" text-anchor="middle">0</text>
<text x="568.0" y="73.0" font-size="11.5" text-anchor="middle">0</text>
<text x="595.0" y="73.0" font-size="11.5" text-anchor="middle">0</text>
<text x="622.0" y="73.0" font-size="11.5" text-anchor="middle">0</text>
<rect x="635.5" y="58" width="27" height="22" fill="#fdeded"/>
<text x="649.0" y="73.0" font-size="11.5" text-anchor="middle">1</text>
<text x="515.5" y="95.0" font-size="11.5" text-anchor="middle">D</text>
<text x="541.0" y="95.0" font-size="11.5" text-anchor="middle">0</text>
<text x="568.0" y="95.0" font-size="11.5" text-anchor="middle">0</text>
<text x="595.0" y="95.0" font-size="11.5" text-anchor="middle">0</text>
<rect x="608.5" y="80" width="27" height="22" fill="#fdeded"/>
<text x="622.0" y="95.0" font-size="11.5" text-anchor="middle">1</text>
<rect x="635.5" y="80" width="27" height="22" fill="#f8c0c0"/>
<text x="649.0" y="95.0" font-size="11.5" text-anchor="middle">3</text>
<text x="515.5" y="117.0" font-size="11.5" text-anchor="middle">M</text>
<text x="541.0" y="117.0" font-size="11.5" text-anchor="middle">0</text>
<text x="568.0" y="117.0" font-size="11.5" text-anchor="middle">0</text>
<text x="595.0" y="117.0" font-size="11.5" text-anchor="middle">0</text>
<text x="622.0" y="117.0" font-size="11.5" text-anchor="middle">0</text>
<text x="649.0" y="117.0" font-size="11.5" text-anchor="middle">0</text>
<text x="515.5" y="139.0" font-size="11.5" text-anchor="middle">S</text>
<text x="541.0" y="139.0" font-size="11.5" text-anchor="middle">0</text>
<rect x="554.5" y="124" width="27" height="22" fill="#f8c0c0"/>
<text x="568.0" y="139.0" font-size="11.5" text-anchor="middle">3</text>
<rect x="581.5" y="124" width="27" height="22" fill="#fbd8d8"/>
<text x="595.0" y="139.0" font-size="11.5" text-anchor="middle">2</text>
<rect x="608.5" y="124" width="27" height="22" fill="#fdeded"/>
<text x="622.0" y="139.0" font-size="11.5" text-anchor="middle">1</text>
<rect x="635.5" y="124" width="27" height="22" fill="#fbd8d8"/>
<text x="649.0" y="139.0" font-size="11.5" text-anchor="middle">2</text>
<text x="515.5" y="161.0" font-size="11.5" text-anchor="middle">O</text>
<text x="541.0" y="161.0" font-size="11.5" text-anchor="middle">0</text>
<text x="568.0" y="161.0" font-size="11.5" text-anchor="middle">0</text>
<text x="595.0" y="161.0" font-size="11.5" text-anchor="middle">0</text>
<text x="622.0" y="161.0" font-size="11.5" text-anchor="middle">0</text>
<text x="649.0" y="161.0" font-size="11.5" text-anchor="middle">0</text>
<line x1="503.5" y1="168" x2="662.5" y2="168" stroke="#000" stroke-width="1.1"/>
<text x="815.0" y="15" font-size="13" text-anchor="middle">(d) Iter 3 (G3)</text>
<text x="815.0" y="32" font-size="11.5" text-anchor="middle"><tspan font-weight="bold">Gold</tspan> &#8595;<tspan dx="14" font-weight="bold">Pred</tspan> &#8594;</text>
<line x1="735.5" y1="40" x2="894.5" y2="40" stroke="#000" stroke-width="1.1"/>
<text x="773.0" y="53" font-size="11.5" text-anchor="middle">C</text>
<text x="800.0" y="53" font-size="11.5" text-anchor="middle">D</text>
<text x="827.0" y="53" font-size="11.5" text-anchor="middle">M</text>
<text x="854.0" y="53" font-size="11.5" text-anchor="middle">S</text>
<text x="881.0" y="53" font-size="11.5" text-anchor="middle">O</text>
<line x1="735.5" y1="58" x2="894.5" y2="58" stroke="#000" stroke-width="0.7"/>
<line x1="759.5" y1="40" x2="759.5" y2="168" stroke="#000" stroke-width="0.7"/>
<text x="747.5" y="73.0" font-size="11.5" text-anchor="middle">C</text>
<text x="773.0" y="73.0" font-size="11.5" text-anchor="middle">0</text>
<text x="800.0" y="73.0" font-size="11.5" text-anchor="middle">0</text>
<text x="827.0" y="73.0" font-size="11.5" text-anchor="middle">0</text>
<text x="854.0" y="73.0" font-size="11.5" text-anchor="middle">0</text>
<rect x="867.5" y="58" width="27" height="22" fill="#fdeded"/>
<text x="881.0" y="73.0" font-size="11.5" text-anchor="middle">1</text>
<text x="747.5" y="95.0" font-size="11.5" text-anchor="middle">D</text>
<text x="773.0" y="95.0" font-size="11.5" text-anchor="middle">0</text>
<text x="800.0" y="95.0" font-size="11.5" text-anchor="middle">0</text>
<text x="827.0" y="95.0" font-size="11.5" text-anchor="middle">0</text>
<text x="854.0" y="95.0" font-size="11.5" text-anchor="middle">0</text>
<rect x="867.5" y="80" width="27" height="22" fill="#fbd8d8"/>
<text x="881.0" y="95.0" font-size="11.5" text-anchor="middle">2</text>
<text x="747.5" y="117.0" font-size="11.5" text-anchor="middle">M</text>
<text x="773.0" y="117.0" font-size="11.5" text-anchor="middle">0</text>
<text x="800.0" y="117.0" font-size="11.5" text-anchor="middle">0</text>
<text x="827.0" y="117.0" font-size="11.5" text-anchor="middle">0</text>
<text x="854.0" y="117.0" font-size="11.5" text-anchor="middle">0</text>
<text x="881.0" y="117.0" font-size="11.5" text-anchor="middle">0</text>
<text x="747.5" y="139.0" font-size="11.5" text-anchor="middle">S</text>
<text x="773.0" y="139.0" font-size="11.5" text-anchor="middle">0</text>
<rect x="786.5" y="124" width="27" height="22" fill="#fbd8d8"/>
<text x="800.0" y="139.0" font-size="11.5" text-anchor="middle">2</text>
<rect x="813.5" y="124" width="27" height="22" fill="#fbd8d8"/>
<text x="827.0" y="139.0" font-size="11.5" text-anchor="middle">2</text>
<rect x="840.5" y="124" width="27" height="22" fill="#fdeded"/>
<text x="854.0" y="139.0" font-size="11.5" text-anchor="middle">1</text>
<rect x="867.5" y="124" width="27" height="22" fill="#f8c0c0"/>
<text x="881.0" y="139.0" font-size="11.5" text-anchor="middle">3</text>
<text x="747.5" y="161.0" font-size="11.5" text-anchor="middle">O</text>
<text x="773.0" y="161.0" font-size="11.5" text-anchor="middle">0</text>
<text x="800.0" y="161.0" font-size="11.5" text-anchor="middle">0</text>
<text x="827.0" y="161.0" font-size="11.5" text-anchor="middle">0</text>
<text x="854.0" y="161.0" font-size="11.5" text-anchor="middle">0</text>
<text x="881.0" y="161.0" font-size="11.5" text-anchor="middle">0</text>
<line x1="735.5" y1="168" x2="894.5" y2="168" stroke="#000" stroke-width="1.1"/>
</svg>